<?xml version="1.0" encoding="utf-8"?>
<!-- Generator: Adobe Illustrator 19.2.1, SVG Export Plug-In . SVG Version: 6.00 Build 0)  -->
<svg version="1.1" id="Layer_1" xmlns="http://www.w3.org/2000/svg" xmlns:xlink="http://www.w3.org/1999/xlink" x="0px" y="0px"
	 viewBox="0 0 960 540" style="enable-background:new 0 0 960 540;" xml:space="preserve">
<style type="text/css">
	.st0{fill:#D1D2D7;stroke:#495861;stroke-miterlimit:10;}
	.st1{fill:#454C61;stroke:#778289;stroke-miterlimit:10;}
	.st2{fill:#FFFFFF;stroke:#495861;stroke-miterlimit:10;}
	.st3{fill:#E6EBFC;}
	.st4{fill:#20273C;}
	.st5{fill:#F9F9F9;}
	.st6{font-family:'Lato-Regular';}
	.st7{font-size:24.9934px;}
	.st8{fill:#666666;}
	.st9{fill:#E78B66;}
	.st10{font-family:'Lato-Heavy';}
	.st11{font-size:49.9869px;}
	.st12{opacity:0.43;fill:#727272;}
	.st13{opacity:0.73;stroke:#454C61;stroke-miterlimit:10;}
	.st14{fill:#FBFBFB;}
	.st15{font-family:'Lato-Black';}
	.st16{font-size:72px;}
</style>
<rect x="426.8" y="493.2" class="st0" width="142.9" height="44.7"/>
<rect x="62.5" y="3.3" class="st1" width="871.6" height="494.1"/>
<rect x="100" y="24.5" class="st2" width="796.5" height="451.5"/>
<rect x="138.9" y="448.7" class="st3" width="330.6" height="26"/>
<rect x="536.4" y="448.7" class="st3" width="330.6" height="26"/>
<rect x="100" y="15.6" class="st4" width="796.5" height="133.8"/>
<text transform="matrix(0.9922 0 0 1 635.2432 92.6938)" class="st5 st6 st7">A</text>
<text transform="matrix(0.9922 0 0 1 652.0322 92.6938)" class="st5 st6 st7">B</text>
<text transform="matrix(0.9922 0 0 1 668.0645 92.6938)" class="st5 st6 st7">O</text>
<text transform="matrix(0.9922 0 0 1 687.916 92.6938)" class="st5 st6 st7">U</text>
<text transform="matrix(0.9922 0 0 1 706.1562 92.6938)" class="st5 st6 st7">T</text>
<text transform="matrix(0.9922 0 0 1 720.0557 92.6938)" class="st5 st6 st7"> </text>
<text transform="matrix(0.9922 0 0 1 726.4043 92.6938)" class="st5 st6 st7">P</text>
<text transform="matrix(0.9922 0 0 1 741.2959 92.6938)" class="st5 st6 st7">O</text>
<text transform="matrix(0.9922 0 0 1 761.1475 92.6938)" class="st5 st6 st7">R</text>
<text transform="matrix(0.9922 0 0 1 776.1016 92.6938)" class="st5 st6 st7">T</text>
<text transform="matrix(0.9922 0 0 1 790.7461 92.6938)" class="st5 st6 st7">F</text>
<text transform="matrix(0.9922 0 0 1 804.6084 92.6938)" class="st5 st6 st7">O</text>
<text transform="matrix(0.9922 0 0 1 824.46 92.6938)" class="st5 st6 st7">L</text>
<text transform="matrix(0.9922 0 0 1 837.1943 92.6938)" class="st5 st6 st7">I</text>
<text transform="matrix(0.9922 0 0 1 844.1377 92.6938)" class="st5 st6 st7">O</text>
<ellipse class="st2" cx="498.2" cy="13.6" rx="5.4" ry="5.5"/>
<ellipse class="st8" cx="171.2" cy="84.4" rx="28.9" ry="29.2"/>
<polygon class="st9" points="896,150 101,150 101,437 486.9,437 499.6,460 512.2,437 896,437 "/>
<text transform="matrix(0.9922 0 0 1 305.4688 294.1826)" class="st5 st10 st11">C</text>
<text transform="matrix(0.9922 0 0 1 338.1543 294.1826)" class="st5 st10 st11">R</text>
<text transform="matrix(0.9922 0 0 1 370.3682 294.1826)" class="st5 st10 st11">E</text>
<text transform="matrix(0.9922 0 0 1 398.8369 294.1826)" class="st5 st10 st11">A</text>
<text transform="matrix(0.9922 0 0 1 430.1338 294.1826)" class="st5 st10 st11">T</text>
<text transform="matrix(0.9922 0 0 1 460.0908 294.1826)" class="st5 st10 st11">I</text>
<text transform="matrix(0.9922 0 0 1 475.1182 294.1826)" class="st5 st10 st11">V</text>
<text transform="matrix(0.9922 0 0 1 509.9365 294.1826)" class="st5 st10 st11">E</text>
<text transform="matrix(0.9922 0 0 1 538.4053 294.1826)" class="st5 st10 st11"> </text>
<text transform="matrix(0.9922 0 0 1 550.1846 294.1826)" class="st5 st10 st11">G</text>
<text transform="matrix(0.9922 0 0 1 585.6475 294.1826)" class="st5 st10 st11">A</text>
<text transform="matrix(0.9922 0 0 1 620.4648 294.1826)" class="st5 st10 st11">I</text>
<text transform="matrix(0.9922 0 0 1 635.4932 294.1826)" class="st5 st10 st11">N</text>
<text transform="matrix(0.9922 0 0 1 673.8574 294.1826)" class="st5 st10 st11">S</text>
<rect x="100" y="15.6" class="st12" width="796.5" height="460.4"/>
<rect x="188" y="80.4" class="st13" width="649.2" height="330.7"/>
<text transform="matrix(1 0 0 1 369.8594 266.131)" class="st14 st15 st16">SIGN UP</text>
</svg>
