<?xml version="1.0" encoding="utf-8"?>
<!-- Generator: Adobe Illustrator 19.2.1, SVG Export Plug-In . SVG Version: 6.00 Build 0)  -->
<svg version="1.1" baseProfile="tiny" id="Layer_1" xmlns="http://www.w3.org/2000/svg" xmlns:xlink="http://www.w3.org/1999/xlink"
	 x="0px" y="0px" viewBox="0 0 960 540" xml:space="preserve">
<rect x="426.8" y="493.2" fill="#D1D2D7" stroke="#495861" stroke-miterlimit="10" width="142.9" height="44.7"/>
<rect x="62.5" y="3.3" fill="#454C61" stroke="#778289" stroke-miterlimit="10" width="871.6" height="494.1"/>
<rect x="100" y="24.5" fill="#FFFFFF" stroke="#495861" stroke-miterlimit="10" width="796.5" height="451.5"/>
<rect x="138.9" y="448.7" fill="#E6EBFC" width="330.6" height="26"/>
<rect x="536.4" y="448.7" fill="#E6EBFC" width="330.6" height="26"/>
<rect x="100" y="15.6" fill="#20273C" width="796.5" height="133.8"/>
<text transform="matrix(0.9922 0 0 1 635.2432 92.6938)" fill="#F9F9F9" font-family="'Lato-Regular'" font-size="24.9934px">A</text>
<text transform="matrix(0.9922 0 0 1 652.0322 92.6938)" fill="#F9F9F9" font-family="'Lato-Regular'" font-size="24.9934px">B</text>
<text transform="matrix(0.9922 0 0 1 668.0645 92.6938)" fill="#F9F9F9" font-family="'Lato-Regular'" font-size="24.9934px">O</text>
<text transform="matrix(0.9922 0 0 1 687.916 92.6938)" fill="#F9F9F9" font-family="'Lato-Regular'" font-size="24.9934px">U</text>
<text transform="matrix(0.9922 0 0 1 706.1562 92.6938)" fill="#F9F9F9" font-family="'Lato-Regular'" font-size="24.9934px">T</text>
<text transform="matrix(0.9922 0 0 1 720.0557 92.6938)" fill="#F9F9F9" font-family="'Lato-Regular'" font-size="24.9934px"> </text>
<text transform="matrix(0.9922 0 0 1 726.4043 92.6938)" fill="#F9F9F9" font-family="'Lato-Regular'" font-size="24.9934px">P</text>
<text transform="matrix(0.9922 0 0 1 741.2959 92.6938)" fill="#F9F9F9" font-family="'Lato-Regular'" font-size="24.9934px">O</text>
<text transform="matrix(0.9922 0 0 1 761.1475 92.6938)" fill="#F9F9F9" font-family="'Lato-Regular'" font-size="24.9934px">R</text>
<text transform="matrix(0.9922 0 0 1 776.1016 92.6938)" fill="#F9F9F9" font-family="'Lato-Regular'" font-size="24.9934px">T</text>
<text transform="matrix(0.9922 0 0 1 790.7461 92.6938)" fill="#F9F9F9" font-family="'Lato-Regular'" font-size="24.9934px">F</text>
<text transform="matrix(0.9922 0 0 1 804.6084 92.6938)" fill="#F9F9F9" font-family="'Lato-Regular'" font-size="24.9934px">O</text>
<text transform="matrix(0.9922 0 0 1 824.46 92.6938)" fill="#F9F9F9" font-family="'Lato-Regular'" font-size="24.9934px">L</text>
<text transform="matrix(0.9922 0 0 1 837.1943 92.6938)" fill="#F9F9F9" font-family="'Lato-Regular'" font-size="24.9934px">I</text>
<text transform="matrix(0.9922 0 0 1 844.1377 92.6938)" fill="#F9F9F9" font-family="'Lato-Regular'" font-size="24.9934px">O</text>
<ellipse fill="#FFFFFF" stroke="#495861" stroke-miterlimit="10" cx="498.2" cy="13.6" rx="5.4" ry="5.5"/>
<ellipse fill="#666666" cx="171.2" cy="84.4" rx="28.9" ry="29.2"/>
<polygon fill="#E78B66" points="896,150 101,150 101,437 486.9,437 499.6,460 512.2,437 896,437 "/>
<text transform="matrix(0.9922 0 0 1 305.4688 294.1826)" fill="#F9F9F9" font-family="'Lato-Heavy'" font-size="49.9869px">C</text>
<text transform="matrix(0.9922 0 0 1 338.1538 294.1826)" fill="#F9F9F9" font-family="'Lato-Heavy'" font-size="49.9869px">R</text>
<text transform="matrix(0.9922 0 0 1 370.3677 294.1826)" fill="#F9F9F9" font-family="'Lato-Heavy'" font-size="49.9869px">E</text>
<text transform="matrix(0.9922 0 0 1 398.8369 294.1826)" fill="#F9F9F9" font-family="'Lato-Heavy'" font-size="49.9869px">A</text>
<text transform="matrix(0.9922 0 0 1 430.1333 294.1826)" fill="#F9F9F9" font-family="'Lato-Heavy'" font-size="49.9869px">T</text>
<text transform="matrix(0.9922 0 0 1 460.0903 294.1826)" fill="#F9F9F9" font-family="'Lato-Heavy'" font-size="49.9869px">I</text>
<text transform="matrix(0.9922 0 0 1 475.1182 294.1826)" fill="#F9F9F9" font-family="'Lato-Heavy'" font-size="49.9869px">V</text>
<text transform="matrix(0.9922 0 0 1 509.9365 294.1826)" fill="#F9F9F9" font-family="'Lato-Heavy'" font-size="49.9869px">E</text>
<text transform="matrix(0.9922 0 0 1 538.4053 294.1826)" fill="#F9F9F9" font-family="'Lato-Heavy'" font-size="49.9869px"> </text>
<text transform="matrix(0.9922 0 0 1 550.1846 294.1826)" fill="#F9F9F9" font-family="'Lato-Heavy'" font-size="49.9869px">G</text>
<text transform="matrix(0.9922 0 0 1 585.6475 294.1826)" fill="#F9F9F9" font-family="'Lato-Heavy'" font-size="49.9869px">A</text>
<text transform="matrix(0.9922 0 0 1 620.4648 294.1826)" fill="#F9F9F9" font-family="'Lato-Heavy'" font-size="49.9869px">I</text>
<text transform="matrix(0.9922 0 0 1 635.4932 294.1826)" fill="#F9F9F9" font-family="'Lato-Heavy'" font-size="49.9869px">N</text>
<text transform="matrix(0.9922 0 0 1 673.8574 294.1826)" fill="#F9F9F9" font-family="'Lato-Heavy'" font-size="49.9869px">S</text>
</svg>
