<?xml version="1.0" encoding="utf-8"?>
<!-- Generator: Adobe Illustrator 19.2.1, SVG Export Plug-In . SVG Version: 6.00 Build 0)  -->
<svg version="1.1" id="Layer_1" xmlns="http://www.w3.org/2000/svg" xmlns:xlink="http://www.w3.org/1999/xlink" x="0px" y="0px"
	 viewBox="0 0 400 500" style="enable-background:new 0 0 400 500;" xml:space="preserve">
<style type="text/css">
	.st0{fill:#0E0E0F;}
	.st1{fill:none;stroke:#000000;stroke-miterlimit:10;}
	.st2{fill:#E6EBFC;}
	.st3{fill:#E78B66;}
	.st4{fill:#F9F9F9;}
	.st5{fill:#171F39;}
	.st6{fill:#666666;}
	.st7{stroke:#FFFFFF;stroke-miterlimit:10;}
</style>
<g>
	<path class="st0" d="M268.7,379.7c0,4.4-3.6,8-8,8H139.3c-4.4,0-8-3.6-8-8V138.3c0-4.4,3.6-8,8-8h121.4c4.4,0,8,3.6,8,8V379.7z"/>
	<path class="st1" d="M268.7,379.7c0,4.4-3.6,8-8,8H139.3c-4.4,0-8-3.6-8-8V138.3c0-4.4,3.6-8,8-8h121.4c4.4,0,8,3.6,8,8V379.7z"/>
</g>
<rect x="139.2" y="281.5" class="st2" width="121.5" height="57.3"/>
<rect x="139.2" y="304.9" class="st2" width="121.5" height="57.3"/>
<rect x="139.2" y="167.8" class="st3" width="121.6" height="23.8"/>
<rect x="139.2" y="179.6" class="st4" width="121.5" height="8.9"/>
<rect x="139.2" y="170.1" class="st2" width="121.5" height="35.2"/>
<rect x="139.2" y="155.2" class="st5" width="121.5" height="36.5"/>
<rect x="139.2" y="215.5" class="st2" width="121.5" height="57.3"/>
<rect x="139.2" y="204.8" class="st4" width="121.5" height="10.7"/>
<ellipse class="st6" cx="199" cy="175.1" rx="10.5" ry="12.3"/>
<rect x="139.2" y="272.8" class="st4" width="121.5" height="10.7"/>
<rect x="139.2" y="336" class="st4" width="121.5" height="10.7"/>
<path class="st1" d="M258.8,362.8H141.2c-1.1,0-2-0.9-2-2V157.2c0-1.1,0.9-2,2-2h117.6c1.1,0,2,0.9,2,2v203.5
	C260.8,361.9,259.9,362.8,258.8,362.8z"/>
<circle class="st7" cx="199.5" cy="375.5" r="9.3"/>
<circle class="st7" cx="200" cy="136.3" r="2.5"/>
<circle class="st7" cx="187.5" cy="144.5" r="1.6"/>
<path class="st7" d="M206.1,145.6H194c-0.6,0-1.1-0.5-1.1-1.1l0,0c0-0.6,0.5-1.1,1.1-1.1h12.1c0.6,0,1.1,0.5,1.1,1.1l0,0
	C207.2,145.1,206.7,145.6,206.1,145.6z"/>
</svg>
