<?xml version="1.0" encoding="utf-8"?>
<!-- Generator: Adobe Illustrator 19.2.1, SVG Export Plug-In . SVG Version: 6.00 Build 0)  -->
<svg version="1.1" baseProfile="tiny" id="Layer_1" xmlns="http://www.w3.org/2000/svg" xmlns:xlink="http://www.w3.org/1999/xlink"
	 x="0px" y="0px" viewBox="0 0 400 500" xml:space="preserve">
<g>
	<path fill="#0E0E0F" d="M268.7,379.7c0,4.4-3.6,8-8,8H139.3c-4.4,0-8-3.6-8-8V138.3c0-4.4,3.6-8,8-8h121.4c4.4,0,8,3.6,8,8V379.7z"
		/>
	<path fill="none" stroke="#000000" stroke-miterlimit="10" d="M268.7,379.7c0,4.4-3.6,8-8,8H139.3c-4.4,0-8-3.6-8-8V138.3
		c0-4.4,3.6-8,8-8h121.4c4.4,0,8,3.6,8,8V379.7z"/>
</g>
<rect x="139.2" y="305.5" fill="#E6EBFC" width="121.5" height="57.3"/>
<rect x="139.2" y="167.8" fill="#E78B66" width="121.6" height="23.8"/>
<rect x="139.2" y="179.6" fill="#F9F9F9" width="121.5" height="8.9"/>
<rect x="139.2" y="188.5" fill="#E6EBFC" width="121.5" height="70.3"/>
<rect x="139.2" y="155.2" fill="#171F39" width="121.5" height="36.5"/>
<rect x="139.2" y="269.5" fill="#E6EBFC" width="121.5" height="57.3"/>
<rect x="139.2" y="258.8" fill="#F9F9F9" width="121.5" height="10.7"/>
<ellipse fill="#666666" cx="199" cy="175.1" rx="10.5" ry="12.3"/>
<rect x="139.2" y="326.8" fill="#F9F9F9" width="121.5" height="10.7"/>
<path fill="none" stroke="#000000" stroke-miterlimit="10" d="M258.8,362.8H141.2c-1.1,0-2-0.9-2-2V157.2c0-1.1,0.9-2,2-2h117.6
	c1.1,0,2,0.9,2,2v203.5C260.8,361.9,259.9,362.8,258.8,362.8z"/>
<circle stroke="#FFFFFF" stroke-miterlimit="10" cx="199.5" cy="375.5" r="9.3"/>
<circle stroke="#FFFFFF" stroke-miterlimit="10" cx="200" cy="136.3" r="2.5"/>
<circle stroke="#FFFFFF" stroke-miterlimit="10" cx="187.5" cy="144.5" r="1.6"/>
<path stroke="#FFFFFF" stroke-miterlimit="10" d="M206.1,145.6h-12.1c-0.6,0-1.1-0.5-1.1-1.1v0c0-0.6,0.5-1.1,1.1-1.1h12.1
	c0.6,0,1.1,0.5,1.1,1.1v0C207.2,145.1,206.7,145.6,206.1,145.6z"/>
</svg>
