<?xml version="1.0" encoding="utf-8"?>
<!-- Generator: Adobe Illustrator 19.2.1, SVG Export Plug-In . SVG Version: 6.00 Build 0)  -->
<svg version="1.1" baseProfile="tiny" id="Layer_1" xmlns="http://www.w3.org/2000/svg" xmlns:xlink="http://www.w3.org/1999/xlink"
	 x="0px" y="0px" viewBox="0 0 600 600" xml:space="preserve">
<g>
	<path fill="#0E0E0E" d="M426.2,527.7c0,4.4-3.6,8-8,8h-235c-4.4,0-8-3.6-8-8v-454c0-4.4,3.6-8,8-8h235c4.4,0,8,3.6,8,8V527.7z"/>
	<path fill="#0E0E0E" stroke="#000000" stroke-miterlimit="10" d="M426.2,527.7c0,4.4-3.6,8-8,8h-235c-4.4,0-8-3.6-8-8v-454
		c0-4.4,3.6-8,8-8h235c4.4,0,8,3.6,8,8V527.7z"/>
</g>
<rect x="189.7" y="111.2" fill="#171F39" width="222" height="66.7"/>
<rect x="189.7" y="177.9" fill="#E78B66" width="222" height="43.4"/>
<rect x="189.7" y="237.6" fill="#E6EBFC" width="222" height="128.4"/>
<rect x="189.7" y="385.5" fill="#E6EBFC" width="222" height="104.7"/>
<rect x="189.7" y="221.3" fill="#F9F9F9" width="222" height="16.3"/>
<rect x="189.7" y="366" fill="#F9F9F9" width="222" height="19.5"/>
<ellipse fill="#666666" cx="298.8" cy="147.5" rx="19.1" ry="22.4"/>
<path fill="none" stroke="#000000" stroke-miterlimit="10" d="M409.7,490.2h-218c-1.1,0-2-0.9-2-2v-375c0-1.1,0.9-2,2-2h218
	c1.1,0,2,0.9,2,2v375C411.7,489.3,410.8,490.2,409.7,490.2z"/>
<circle stroke="#FFFFFF" stroke-miterlimit="10" cx="299.7" cy="513.3" r="17"/>
<circle stroke="#FFFFFF" stroke-miterlimit="10" cx="300.7" cy="76.5" r="4.5"/>
<circle stroke="#FFFFFF" stroke-miterlimit="10" cx="277.9" cy="91.5" r="3"/>
<path stroke="#FFFFFF" stroke-miterlimit="10" d="M311.7,93.5h-22.2c-1.1,0-2-0.9-2-2l0,0c0-1.1,0.9-2,2-2h22.2c1.1,0,2,0.9,2,2l0,0
	C313.7,92.6,312.8,93.5,311.7,93.5z"/>
</svg>
