<?xml version="1.0" encoding="utf-8"?>
<!-- Generator: Adobe Illustrator 19.2.1, SVG Export Plug-In . SVG Version: 6.00 Build 0)  -->
<svg version="1.1" id="Layer_1" xmlns="http://www.w3.org/2000/svg" xmlns:xlink="http://www.w3.org/1999/xlink" x="0px" y="0px"
	 viewBox="0 0 600 600" style="enable-background:new 0 0 600 600;" xml:space="preserve">
<style type="text/css">
	.st0{fill:#0E0E0E;}
	.st1{fill:#0E0E0E;stroke:#000000;stroke-miterlimit:10;}
	.st2{fill:#F9F9F9;}
	.st3{fill:#E78B66;}
	.st4{fill:#171F39;}
	.st5{fill:#E6EBFC;}
	.st6{fill:#666666;}
	.st7{stroke:#FFFFFF;stroke-miterlimit:10;}
</style>
<g>
	<path class="st0" d="M426.2,527.7c0,4.4-3.6,8-8,8h-235c-4.4,0-8-3.6-8-8v-454c0-4.4,3.6-8,8-8h235c4.4,0,8,3.6,8,8V527.7
		L426.2,527.7z"/>
	<path class="st1" d="M426.2,527.7c0,4.4-3.6,8-8,8h-235c-4.4,0-8-3.6-8-8v-454c0-4.4,3.6-8,8-8h235c4.4,0,8,3.6,8,8V527.7
		L426.2,527.7z"/>
</g>
<rect x="191.2" y="118.1" class="st2" width="222" height="368.3"/>
<rect x="227.8" y="139.4" class="st3" width="25.8" height="323"/>
<rect x="191.2" y="139.5" class="st4" width="39.6" height="322.9"/>
<rect x="263.2" y="139.5" class="st5" width="76.2" height="322.9"/>
<rect x="351" y="139.5" class="st5" width="62.1" height="322.9"/>
<rect x="253.5" y="139.4" class="st2" width="9.7" height="322.9"/>
<rect x="339.4" y="139.4" class="st2" width="11.6" height="322.9"/>
<circle class="st6" cx="212.7" cy="302.6" r="13"/>
<circle class="st7" cx="299.7" cy="513.3" r="17"/>
<circle class="st7" cx="300.7" cy="76.5" r="4.5"/>
<circle class="st7" cx="278" cy="91.5" r="3"/>
<path class="st7" d="M311.8,93.5h-22.2c-1.1,0-2-0.9-2-2l0,0c0-1.1,0.9-2,2-2h22.2c1.1,0,2,0.9,2,2l0,0
	C313.8,92.6,312.9,93.5,311.8,93.5z"/>
</svg>
